<svg id="Layer_1" data-name="Layer 1" xmlns="http://www.w3.org/2000/svg" width="141.6217" height="23.3393" viewBox="0 0 141.6217 23.3393"><defs><style>.cls-1{fill:none;stroke:#000;stroke-miterlimit:10;stroke-width:2px;}</style></defs><title>markado-icon-ce</title><path d="M0,7.7626H3.6559V9.44A5.3493,5.3493,0,0,1,5.0792,7.85,3.8791,3.8791,0,0,1,7.126,7.3617a3.6073,3.6073,0,0,1,3.52,2.0787A4.81,4.81,0,0,1,14.64,7.3617q4.1937,0,4.1937,4.4331v8.716H15.1777V13.1973q.0245-2.529-1.8785-2.53a1.8011,1.8011,0,0,0-1.7783.9519,5.364,5.364,0,0,0-.3012,2.1037v6.7875H7.5383V13.8484a6.7376,6.7376,0,0,0-.2257-2.1036,1.5752,1.5752,0,0,0-1.6272-1.0771A1.73,1.73,0,0,0,3.8816,11.77a7.7229,7.7229,0,0,0-.2257,2.2793v6.4617H0Z"/><path d="M29.2277,11.3439a1.03,1.03,0,0,0-.7017-.9516,2.895,2.895,0,0,0-1.2523-.25,2.679,2.679,0,0,0-1.5025.33,2.1318,2.1318,0,0,0-.8018,1.3224H21.6139v-.2521a2.4222,2.4222,0,0,1,.0746-.4532q.8764-3.7521,5.6854-3.7528,5.56,0,5.5606,4.9091v6.7374a3.45,3.45,0,0,0,.45,1.5276H29.5535l-.2257-.952q-.8519.5017-1.6782.9393a4.1132,4.1132,0,0,1-1.9531.4386,5.402,5.402,0,0,1-3.3318-.977,3.6023,3.6023,0,0,1-1.427-3.0556,3.51,3.51,0,0,1,2.1532-3.406,20.4521,20.4521,0,0,1,3.9826-.977Q29.2278,12.1708,29.2277,11.3439Zm.1,3.0806q-2.73.6765-2.78.6762-1.978.6765-1.9786,1.5781,0,1.3775,1.954,1.3775a3.01,3.01,0,0,0,2.8049-1.6783Z"/><path d="M35.6139,7.7626h3.6067v.2253l-.15,2.7048q.3-3.3057,4.5332-3.3059v3.5066l-.15.025a2.3277,2.3277,0,0,1-.4132-.05,2.372,2.372,0,0,0-.4131-.05,2.7625,2.7625,0,0,0-2.855,1.8029,11.3768,11.3768,0,0,0-.4014,3.6317v4.2579H35.6139Z"/><path d="M45.5321,2.8285h3.6822v9.2921l3.9316-4.358h4.6333l-4.8335,4.7835,5.2595,7.9647H53.5719l-3.1808-5.41-1.1768,1.1522v4.2579H45.5321Z"/><path d="M67.4718,11.3439a1.03,1.03,0,0,0-.7008-.9516,2.895,2.895,0,0,0-1.2523-.25,2.6771,2.6771,0,0,0-1.5026.33,2.1283,2.1283,0,0,0-.8018,1.3224H59.8579v-.2521a2.4567,2.4567,0,0,1,.0755-.4532q.8764-3.7521,5.6854-3.7528,5.56,0,5.56,4.9091v6.7374a3.44,3.44,0,0,0,.4514,1.5276H67.7976l-.2257-.952q-.85.5017-1.6773.9393a4.1175,4.1175,0,0,1-1.954.4386,5.4016,5.4016,0,0,1-3.331-.977,3.6009,3.6009,0,0,1-1.4279-3.0556,3.5111,3.5111,0,0,1,2.1542-3.406,20.4313,20.4313,0,0,1,3.9826-.977Q67.4713,12.1708,67.4718,11.3439Zm.1,3.0806q-2.7289.6765-2.7795.6762-1.9794.6765-1.9785,1.5781,0,1.3775,1.9531,1.3775a3.0106,3.0106,0,0,0,2.8049-1.6783Z"/><path d="M82.5247,2.8285h3.7815V20.5108H82.6749V19.0082a3.7508,3.7508,0,0,1-3.5621,1.9285,4.9646,4.9646,0,0,1-4.21-2.029,7.377,7.377,0,0,1-1.3952-4.6083,8.02,8.02,0,0,1,1.3779-4.7835,4.9714,4.9714,0,0,1,4.2829-2.1792q2.6047,0,3.3564,1.4525ZM79.9073,17.9562a2.3677,2.3677,0,0,0,2.1888-1.2774,5.2554,5.2554,0,0,0,.5788-2.6047q0-3.7064-2.6675-3.7068a2.4,2.4,0,0,0-2.1642,1.2273,4.7576,4.7576,0,0,0-.6289,2.53,5.2309,5.2309,0,0,0,.5789,2.5546A2.2743,2.2743,0,0,0,79.9073,17.9562Z"/><path d="M95.2224,7.3367a6.3983,6.3983,0,0,1,6.7119,6.7124,6.7956,6.7956,0,0,1-1.8911,4.9464,6.5324,6.5324,0,0,1-4.8963,1.9412,6.6443,6.6443,0,0,1-4.8964-1.8534,6.5777,6.5777,0,0,1-1.8657-4.884,6.7759,6.7759,0,0,1,1.853-4.9964A6.71,6.71,0,0,1,95.2224,7.3367Zm-.0755,10.5944a2.666,2.666,0,0,0,2.33-1.2022,4.6459,4.6459,0,0,0,.7008-2.63q0-3.8321-3.0306-3.832a2.6636,2.6636,0,0,0-2.329,1.2022,4.6385,4.6385,0,0,0-.7017,2.63,4.7459,4.7459,0,0,0,.6762,2.6547A2.6665,2.6665,0,0,0,95.1469,17.9311Z"/><path class="cls-1" d="M137.721,1.6324,140.1684,5.57,116.14,20.511l-6.2306-10.024,3.9385-2.4481,3.7816,6.0825Z"/></svg>