<svg id="Layer_1" data-name="Layer 1" xmlns="http://www.w3.org/2000/svg" width="164.769" height="22.3184" viewBox="0 0 164.769 22.3184"><defs><style>.cls-1{fill:none;stroke:#000;stroke-miterlimit:10;stroke-width:2px;}</style></defs><title>markado-icon-ce</title><path d="M26.9525,7.4667H30.51V9.0991a5.2039,5.2039,0,0,1,1.385-1.5479,3.7741,3.7741,0,0,1,1.9914-.4746,3.51,3.51,0,0,1,3.4252,2.0225,4.68,4.68,0,0,1,3.8855-2.0225q4.08,0,4.08,4.3133v8.48H41.72V12.7544q.0239-2.4606-1.8277-2.4612a1.7524,1.7524,0,0,0-1.73.9262,5.2182,5.2182,0,0,0-.2931,2.0468V19.87H34.2871V13.388a6.557,6.557,0,0,0-.22-2.0468,1.5327,1.5327,0,0,0-1.5833-1.048,1.6838,1.6838,0,0,0-1.7551,1.0723,7.5161,7.5161,0,0,0-.22,2.2177V19.87h-3.557Z"/><path d="M55.39,10.9511a1.0019,1.0019,0,0,0-.6827-.9258,2.8169,2.8169,0,0,0-1.2185-.2435,2.6059,2.6059,0,0,0-1.4619.3214,2.0739,2.0739,0,0,0-.78,1.2867H47.9822v-.2453a2.3607,2.3607,0,0,1,.0726-.441q.8528-3.6507,5.5317-3.6514,5.41,0,5.41,4.7764V18.384a3.3569,3.3569,0,0,0,.4384,1.4863h-3.728l-.22-.9262q-.8287.4881-1.6328.9138a4.0026,4.0026,0,0,1-1.9.4268,5.2559,5.2559,0,0,1-3.2418-.9506,3.505,3.505,0,0,1-1.3885-2.973,3.4156,3.4156,0,0,1,2.0951-3.314,19.9018,19.9018,0,0,1,3.8749-.9506Q55.39,11.7559,55.39,10.9511Zm.0974,2.9974q-2.6565.6582-2.7052.6579-1.9246.6582-1.9251,1.5355,0,1.34,1.9012,1.34a2.9289,2.9289,0,0,0,2.7291-1.6329Z"/><path d="M61.6039,7.4667h3.5092v.2191l-.1461,2.6317q.2922-3.2163,4.4107-3.2166v3.4119l-.1461.0243a2.2619,2.2619,0,0,1-.4021-.0487,2.31,2.31,0,0,0-.402-.0487A2.6879,2.6879,0,0,0,65.65,12.1939a11.0716,11.0716,0,0,0-.39,3.5336V19.87H61.6039Z"/><path d="M71.254,2.6659h3.5828v9.041l3.8253-4.24H83.17l-4.7029,4.6541,5.1173,7.75H79.0765l-3.0948-5.2639-1.1449,1.1211V19.87H71.254Z"/><path d="M13.9588,2.557h3.5827V19.7614H13.9588Z"/><path d="M92.6008,10.9511a1.0022,1.0022,0,0,0-.6819-.9258,2.8165,2.8165,0,0,0-1.2184-.2435,2.6044,2.6044,0,0,0-1.462.3214,2.0709,2.0709,0,0,0-.78,1.2867H85.1927v-.2453a2.3864,2.3864,0,0,1,.0735-.441q.8528-3.6507,5.5317-3.6514,5.41,0,5.41,4.7764V18.384a3.3475,3.3475,0,0,0,.4392,1.4863H92.9178l-.22-.9262q-.8275.4881-1.632.9138a4.0057,4.0057,0,0,1-1.9012.4268,5.2554,5.2554,0,0,1-3.2409-.9506,3.5035,3.5035,0,0,1-1.3893-2.973,3.4163,3.4163,0,0,1,2.0959-3.314,19.8847,19.8847,0,0,1,3.875-.9506Q92.6,11.7559,92.6008,10.9511Zm.0974,2.9974q-2.6552.6582-2.7043.6579-1.926.6582-1.9251,1.5355,0,1.34,1.9,1.34a2.9291,2.9291,0,0,0,2.7291-1.6329Z"/><path d="M107.2469,2.6659h3.6793V19.87H107.393v-1.462a3.6494,3.6494,0,0,1-3.4658,1.8764,4.83,4.83,0,0,1-4.0963-1.9742,7.1772,7.1772,0,0,1-1.3575-4.4837,7.8028,7.8028,0,0,1,1.3407-4.6542,4.8369,4.8369,0,0,1,4.1671-2.12q2.5342,0,3.2657,1.4133ZM104.7,17.3847a2.3038,2.3038,0,0,0,2.13-1.2428,5.1143,5.1143,0,0,0,.5631-2.5343q0-3.6061-2.5954-3.6066a2.3352,2.3352,0,0,0-2.1057,1.1941,4.6286,4.6286,0,0,0-.6119,2.4612,5.0907,5.0907,0,0,0,.5632,2.4856A2.2128,2.2128,0,0,0,104.7,17.3847Z"/><path d="M119.6014,7.0522a6.2256,6.2256,0,0,1,6.5306,6.531,6.612,6.612,0,0,1-1.84,4.8127,6.3555,6.3555,0,0,1-4.764,1.8888,6.4647,6.4647,0,0,1-4.764-1.8033,6.4,6.4,0,0,1-1.8152-4.752,6.5928,6.5928,0,0,1,1.8028-4.8614A6.5289,6.5289,0,0,1,119.6014,7.0522ZM119.5279,17.36a2.5938,2.5938,0,0,0,2.2669-1.17,4.52,4.52,0,0,0,.6818-2.5587q0-3.7283-2.9487-3.7283a2.5916,2.5916,0,0,0-2.266,1.17,4.5132,4.5132,0,0,0-.6827,2.5586,4.6183,4.6183,0,0,0,.6579,2.5831A2.5944,2.5944,0,0,0,119.5279,17.36Z"/><path class="cls-1" d="M160.9515,1.5021l2.3812,3.8312L139.9535,19.8705l-6.0622-9.7531,3.8321-2.382,3.6794,5.9182Z"/><path d="M6.1171,19.7614a6.5316,6.5316,0,0,1-3.2714-.7527A5.2354,5.2354,0,0,1,.7385,16.8093,7.2458,7.2458,0,0,1,0,13.4339a7.2092,7.2092,0,0,1,.7385-3.3392,5.4516,5.4516,0,0,1,2.0833-2.24A6.0479,6.0479,0,0,1,5.98,7.0522a6.5293,6.5293,0,0,1,2.2757.3891,5.1415,5.1415,0,0,1,1.8465,1.1681,5.3192,5.3192,0,0,1,1.232,1.9549,7.8081,7.8081,0,0,1,.4417,2.7491v.9391H1.3648V12.1336H8.5572a2.62,2.62,0,0,0-.3212-1.3087A2.3354,2.3354,0,0,0,7.3491,9.93a2.5835,2.5835,0,0,0-1.3125-.3255A2.6328,2.6328,0,0,0,4.66,9.9619a2.5645,2.5645,0,0,0-.9353.9553A2.7182,2.7182,0,0,0,3.38,12.2458v2.015a3.4285,3.4285,0,0,0,.3412,1.5815,2.4439,2.4439,0,0,0,.967,1.0275,2.9243,2.9243,0,0,0,1.4853.3612A3.2333,3.2333,0,0,0,7.2168,17.07a2.1691,2.1691,0,0,0,.8108-.4818,2.0972,2.0972,0,0,0,.5135-.7868l3.163.2089a4.3141,4.3141,0,0,1-.9835,1.9867,4.9364,4.9364,0,0,1-1.91,1.3164A7.1823,7.1823,0,0,1,6.1171,19.7614Z"/></svg>