<svg id="Layer_1" data-name="Layer 1" xmlns="http://www.w3.org/2000/svg" xmlns:xlink="http://www.w3.org/1999/xlink" width="141.6217" height="23.2619" viewBox="0 0 141.6217 23.2619"><defs><style>.cls-1{fill:none;stroke-miterlimit:10;stroke-width:2px;stroke:url(#linear-gradient);}</style><linearGradient id="linear-gradient" x1="124.4626" y1="1.3701" x2="126.1721" y2="20.9093" gradientUnits="userSpaceOnUse"><stop offset="0" stop-color="#25d789"/><stop offset="1" stop-color="#694fff"/></linearGradient></defs><title>markado-icon-ce</title><path d="M0,7.6894H3.6559V9.3672A5.3493,5.3493,0,0,1,5.0792,7.7763,3.8791,3.8791,0,0,1,7.126,7.2885a3.6073,3.6073,0,0,1,3.52,2.0787A4.81,4.81,0,0,1,14.64,7.2885q4.1937,0,4.1937,4.4331v8.716H15.1777V13.1241q.0245-2.529-1.8785-2.53a1.8011,1.8011,0,0,0-1.7783.952A5.364,5.364,0,0,0,11.22,13.65v6.7875H7.5383V13.7752a6.7388,6.7388,0,0,0-.2257-2.1037,1.5753,1.5753,0,0,0-1.6272-1.0771,1.7305,1.7305,0,0,0-1.8038,1.1022,7.7229,7.7229,0,0,0-.2257,2.2793v6.4617H0Z"/><path d="M29.2277,11.2706a1.03,1.03,0,0,0-.7017-.9515,2.895,2.895,0,0,0-1.2523-.25,2.679,2.679,0,0,0-1.5025.33,2.1318,2.1318,0,0,0-.8018,1.3224H21.6139V11.47a2.4222,2.4222,0,0,1,.0746-.4532q.8764-3.7521,5.6854-3.7528,5.56,0,5.5606,4.9091V18.91a3.45,3.45,0,0,0,.45,1.5276H29.5535l-.2257-.952q-.8519.5017-1.6782.9392a4.1121,4.1121,0,0,1-1.9531.4387,5.402,5.402,0,0,1-3.3318-.977,3.6023,3.6023,0,0,1-1.427-3.0556,3.5105,3.5105,0,0,1,2.1532-3.4061,20.4621,20.4621,0,0,1,3.9826-.9769Q29.2278,12.0976,29.2277,11.2706Zm.1,3.0807q-2.73.6765-2.78.6762-1.978.6765-1.9786,1.5781,0,1.3775,1.954,1.3775a3.01,3.01,0,0,0,2.8049-1.6783Z"/><path d="M35.6139,7.6894h3.6067v.2253L39.07,10.62q.3-3.3057,4.5332-3.3059V10.82l-.15.0251a2.3277,2.3277,0,0,1-.4132-.05,2.372,2.372,0,0,0-.4131-.05,2.7625,2.7625,0,0,0-2.855,1.8029,11.3764,11.3764,0,0,0-.4014,3.6317v4.2579H35.6139Z"/><path d="M45.5321,2.7553h3.6822v9.2921l3.9316-4.358h4.6333l-4.8335,4.7835,5.2595,7.9647H53.5719l-3.1808-5.41L49.2143,16.18v4.2579H45.5321Z"/><path d="M67.4718,11.2706a1.03,1.03,0,0,0-.7008-.9515,2.895,2.895,0,0,0-1.2523-.25,2.6771,2.6771,0,0,0-1.5026.33,2.1283,2.1283,0,0,0-.8018,1.3224H59.8579V11.47a2.4567,2.4567,0,0,1,.0755-.4532q.8764-3.7521,5.6854-3.7528,5.56,0,5.56,4.9091V18.91a3.44,3.44,0,0,0,.4514,1.5276H67.7976l-.2257-.952q-.85.5017-1.6773.9392a4.1163,4.1163,0,0,1-1.954.4387,5.4016,5.4016,0,0,1-3.331-.977,3.6009,3.6009,0,0,1-1.4279-3.0556,3.5114,3.5114,0,0,1,2.1542-3.4061,20.4413,20.4413,0,0,1,3.9826-.9769Q67.4713,12.0976,67.4718,11.2706Zm.1,3.0807q-2.7289.6765-2.7795.6762-1.9794.6765-1.9785,1.5781,0,1.3775,1.9531,1.3775a3.0106,3.0106,0,0,0,2.8049-1.6783Z"/><path d="M82.5247,2.7553h3.7815V20.4376H82.6749V18.935a3.7508,3.7508,0,0,1-3.5621,1.9285,4.9646,4.9646,0,0,1-4.21-2.029,7.377,7.377,0,0,1-1.3952-4.6083,8.02,8.02,0,0,1,1.3779-4.7835,4.9714,4.9714,0,0,1,4.2829-2.1792q2.6047,0,3.3564,1.4525ZM79.9073,17.8829a2.3676,2.3676,0,0,0,2.1888-1.2773,5.2557,5.2557,0,0,0,.5788-2.6047q0-3.7064-2.6675-3.7068a2.4,2.4,0,0,0-2.1642,1.2273,4.7576,4.7576,0,0,0-.6289,2.53,5.2311,5.2311,0,0,0,.5789,2.5546A2.2742,2.2742,0,0,0,79.9073,17.8829Z"/><path d="M95.2224,7.2635a6.3981,6.3981,0,0,1,6.7119,6.7124,6.7956,6.7956,0,0,1-1.8911,4.9464,6.5324,6.5324,0,0,1-4.8963,1.9412A6.6443,6.6443,0,0,1,90.2505,19.01a6.5778,6.5778,0,0,1-1.8657-4.884A6.7763,6.7763,0,0,1,90.2378,9.13,6.71,6.71,0,0,1,95.2224,7.2635Zm-.0755,10.5944a2.666,2.666,0,0,0,2.33-1.2022,4.6459,4.6459,0,0,0,.7008-2.63q0-3.8321-3.0306-3.832a2.6634,2.6634,0,0,0-2.329,1.2022,4.6385,4.6385,0,0,0-.7017,2.63,4.7462,4.7462,0,0,0,.6762,2.6547A2.6665,2.6665,0,0,0,95.1469,17.8579Z"/><path class="cls-1" d="M137.721,1.5592l2.4474,3.9376L116.14,20.4378l-6.2306-10.024,3.9385-2.4481,3.7816,6.0825Z"/></svg>