<svg id="Layer_1" data-name="Layer 1" xmlns="http://www.w3.org/2000/svg" width="50.169" height="28.8086" viewBox="0 0 50.169 28.8086"><defs><style>.cls-1{fill:none;stroke:#000;stroke-miterlimit:10;stroke-width:2px;}</style></defs><title>markado-icon-ce</title><path d="M0,8.2307H3.6559V9.9084A5.3474,5.3474,0,0,1,5.0792,8.3176,3.8791,3.8791,0,0,1,7.126,7.83a3.6073,3.6073,0,0,1,3.52,2.0786A4.81,4.81,0,0,1,14.64,7.83q4.1937,0,4.1937,4.433v8.716H15.1777V13.6653q.0245-2.529-1.8785-2.53a1.8011,1.8011,0,0,0-1.7783.9519,5.3643,5.3643,0,0,0-.3012,2.1037v6.7875H7.5383V14.3165a6.7383,6.7383,0,0,0-.2257-2.1037,1.5753,1.5753,0,0,0-1.6272-1.0771,1.7306,1.7306,0,0,0-1.8038,1.1021,7.7229,7.7229,0,0,0-.2257,2.2793v6.4617H0Z"/><path class="cls-1" d="M46.2327,1.4841,48.68,5.4217,24.6515,20.3627l-6.2306-10.024,3.9385-2.4481,3.7816,6.0825Z"/></svg>