<svg id="Layer_1" data-name="Layer 1" xmlns="http://www.w3.org/2000/svg" width="141.6217" height="23.3393" viewBox="0 0 141.6217 23.3393"><defs><style>.cls-1{fill:#fff;}.cls-2{fill:none;stroke:#fff;stroke-miterlimit:10;stroke-width:2px;}</style></defs><title>markado-icon-markado-white</title><path class="cls-1" d="M0,7.7626H3.6559V9.44A5.3488,5.3488,0,0,1,5.0792,7.85,3.88,3.88,0,0,1,7.126,7.3617,3.6073,3.6073,0,0,1,10.646,9.44,4.81,4.81,0,0,1,14.64,7.3617q4.1937,0,4.1937,4.4331v8.716h-3.656V13.1973q.0245-2.529-1.8785-2.53a1.8011,1.8011,0,0,0-1.7783.9519,5.3639,5.3639,0,0,0-.3012,2.1037V20.51H7.5383v-6.662a6.7392,6.7392,0,0,0-.2257-2.1036,1.5752,1.5752,0,0,0-1.6272-1.0771A1.73,1.73,0,0,0,3.8816,11.77a7.7221,7.7221,0,0,0-.2257,2.2793V20.511H0Z"/><path class="cls-1" d="M29.2277,11.3439a1.03,1.03,0,0,0-.7017-.9516,2.8955,2.8955,0,0,0-1.2523-.25,2.68,2.68,0,0,0-1.5025.33,2.1316,2.1316,0,0,0-.8018,1.3224H21.6139v-.2521a2.4234,2.4234,0,0,1,.0746-.4532q.8764-3.7521,5.6854-3.7528,5.56,0,5.5606,4.9091v6.7374a3.4494,3.4494,0,0,0,.45,1.5276h-3.831l-.2257-.952q-.8519.5017-1.6782.9393a4.1129,4.1129,0,0,1-1.9531.4386,5.4024,5.4024,0,0,1-3.3318-.977,3.6023,3.6023,0,0,1-1.427-3.0556,3.51,3.51,0,0,1,2.1532-3.406,20.4475,20.4475,0,0,1,3.9826-.977Q29.2278,12.1707,29.2277,11.3439Zm.1,3.0806q-2.73.6765-2.78.6762-1.978.6765-1.9786,1.5781,0,1.3775,1.954,1.3775A3.01,3.01,0,0,0,29.328,16.378Z"/><path class="cls-1" d="M35.6139,7.7626h3.6067v.2253l-.15,2.7048q.3-3.3057,4.5332-3.3059v3.5066l-.15.025a2.3255,2.3255,0,0,1-.4132-.05,2.3726,2.3726,0,0,0-.4131-.05,2.7625,2.7625,0,0,0-2.855,1.8029,11.3775,11.3775,0,0,0-.4014,3.6317v4.2579H35.6139Z"/><path class="cls-1" d="M45.5321,2.8285h3.6822v9.2921l3.9316-4.358h4.6333l-4.8335,4.7835,5.2595,7.9647H53.5719l-3.1808-5.41L49.2143,16.253v4.2579H45.5321Z"/><path class="cls-1" d="M67.4718,11.3439a1.03,1.03,0,0,0-.7008-.9516,2.8955,2.8955,0,0,0-1.2523-.25,2.6773,2.6773,0,0,0-1.5026.33,2.1286,2.1286,0,0,0-.8018,1.3224H59.8579v-.2521a2.4581,2.4581,0,0,1,.0755-.4532q.8764-3.7521,5.6854-3.7528,5.56,0,5.56,4.9091v6.7374a3.4406,3.4406,0,0,0,.4514,1.5276H67.7976l-.2257-.952q-.85.5017-1.6773.9393a4.1177,4.1177,0,0,1-1.954.4386,5.4015,5.4015,0,0,1-3.331-.977,3.6011,3.6011,0,0,1-1.4279-3.0556,3.5111,3.5111,0,0,1,2.1542-3.406,20.4331,20.4331,0,0,1,3.9826-.977Q67.4713,12.1707,67.4718,11.3439Zm.1,3.0806q-2.7289.6765-2.7795.6762-1.9794.6765-1.9785,1.5781,0,1.3775,1.9531,1.3775a3.0105,3.0105,0,0,0,2.8049-1.6783Z"/><path class="cls-1" d="M82.5247,2.8285h3.7815V20.5108H82.6749V19.0082a3.7509,3.7509,0,0,1-3.5621,1.9285,4.9644,4.9644,0,0,1-4.21-2.029,7.377,7.377,0,0,1-1.3952-4.6083,8.02,8.02,0,0,1,1.3779-4.7835,4.9714,4.9714,0,0,1,4.2829-2.1792q2.6047,0,3.3564,1.4525ZM79.9073,17.9562a2.3675,2.3675,0,0,0,2.1888-1.2774,5.2549,5.2549,0,0,0,.5788-2.6047q0-3.7064-2.6675-3.7068a2.4,2.4,0,0,0-2.1642,1.2273,4.7579,4.7579,0,0,0-.6289,2.53,5.2312,5.2312,0,0,0,.5789,2.5546A2.2742,2.2742,0,0,0,79.9073,17.9562Z"/><path class="cls-1" d="M95.2224,7.3367a6.3985,6.3985,0,0,1,6.7119,6.7124,6.7957,6.7957,0,0,1-1.8911,4.9464,6.5328,6.5328,0,0,1-4.8963,1.9412,6.6441,6.6441,0,0,1-4.8964-1.8534,6.5775,6.5775,0,0,1-1.8657-4.884,6.7759,6.7759,0,0,1,1.853-4.9964A6.71,6.71,0,0,1,95.2224,7.3367Zm-.0755,10.5944a2.6661,2.6661,0,0,0,2.33-1.2022,4.6458,4.6458,0,0,0,.7008-2.63q0-3.8321-3.0306-3.832a2.6635,2.6635,0,0,0-2.329,1.2022,4.638,4.638,0,0,0-.7017,2.63,4.7459,4.7459,0,0,0,.6762,2.6547A2.6664,2.6664,0,0,0,95.1469,17.9311Z"/><path class="cls-2" d="M137.721,1.6324,140.1684,5.57,116.14,20.511l-6.2306-10.024,3.9385-2.4481,3.7816,6.0825Z"/></svg>